<svg width="1920" height="1754" viewBox="0 0 1920 1754" fill="none" xmlns="http://www.w3.org/2000/svg">
<rect x="-28" width="1976" height="1754" fill="#F7F7F7"/>
<g opacity="0.3" filter="url(#filter0_i_130_4158)">
<circle cx="960" cy="949" r="349" stroke="url(#paint0_linear_130_4158)" stroke-width="48"/>
<circle cx="960" cy="949" r="349" stroke="url(#paint1_linear_130_4158)" stroke-width="48"/>
</g>
<g filter="url(#filter1_i_130_4158)">
<mask id="path-3-inside-1_130_4158" fill="white">
<path d="M1224.79 1179.51C1230.79 1184.92 1231.3 1194.19 1225.66 1199.97C1192.84 1233.63 1153.89 1260.79 1110.86 1279.94C1063.37 1301.08 1011.97 1312 959.988 1312C908.007 1312 856.606 1301.07 809.117 1279.93C766.086 1260.78 727.137 1233.62 694.322 1199.95C688.686 1194.17 689.19 1184.9 695.19 1179.5C701.191 1174.09 710.414 1174.6 716.07 1180.37C746.129 1211 781.722 1235.73 821.01 1253.22C864.756 1272.69 912.105 1282.76 959.989 1282.76C1007.87 1282.76 1055.22 1272.7 1098.97 1253.23C1138.26 1235.74 1173.85 1211.01 1203.91 1180.38C1209.57 1174.62 1218.79 1174.11 1224.79 1179.51Z"/>
</mask>
<path d="M1224.79 1179.51C1230.79 1184.92 1231.3 1194.19 1225.66 1199.97C1192.84 1233.63 1153.89 1260.79 1110.86 1279.94C1063.37 1301.08 1011.97 1312 959.988 1312C908.007 1312 856.606 1301.07 809.117 1279.93C766.086 1260.78 727.137 1233.62 694.322 1199.95C688.686 1194.17 689.19 1184.9 695.19 1179.5C701.191 1174.09 710.414 1174.6 716.07 1180.37C746.129 1211 781.722 1235.73 821.01 1253.22C864.756 1272.69 912.105 1282.76 959.989 1282.76C1007.87 1282.76 1055.22 1272.7 1098.97 1253.23C1138.26 1235.74 1173.85 1211.01 1203.91 1180.38C1209.57 1174.62 1218.79 1174.11 1224.79 1179.51Z" stroke="url(#paint2_linear_130_4158)" stroke-width="96" mask="url(#path-3-inside-1_130_4158)"/>
<path d="M1224.79 1179.51C1230.79 1184.92 1231.3 1194.19 1225.66 1199.97C1192.84 1233.63 1153.89 1260.79 1110.86 1279.94C1063.37 1301.08 1011.97 1312 959.988 1312C908.007 1312 856.606 1301.07 809.117 1279.93C766.086 1260.78 727.137 1233.62 694.322 1199.95C688.686 1194.17 689.19 1184.9 695.19 1179.5C701.191 1174.09 710.414 1174.6 716.07 1180.37C746.129 1211 781.722 1235.73 821.01 1253.22C864.756 1272.69 912.105 1282.76 959.989 1282.76C1007.87 1282.76 1055.22 1272.7 1098.97 1253.23C1138.26 1235.74 1173.85 1211.01 1203.91 1180.38C1209.57 1174.62 1218.79 1174.11 1224.79 1179.51Z" stroke="url(#paint3_linear_130_4158)" stroke-width="96" mask="url(#path-3-inside-1_130_4158)"/>
</g>
<g filter="url(#filter2_f_130_4158)">
<rect x="445.714" y="999" width="1028.57" height="35.1429" rx="17.5714" fill="url(#paint4_linear_130_4158)"/>
</g>
<g filter="url(#filter3_f_130_4158)">
<rect x="445.714" y="870.43" width="1028.57" height="35.1429" rx="17.5714" fill="url(#paint5_linear_130_4158)"/>
</g>
<g filter="url(#filter4_f_130_4158)">
<rect x="445.714" y="741" width="1028.57" height="35.1429" rx="17.5714" fill="url(#paint6_linear_130_4158)"/>
</g>
<g filter="url(#filter5_f_130_4158)">
<rect x="445.714" y="611.57" width="1028.57" height="35.1429" rx="17.5714" fill="url(#paint7_linear_130_4158)"/>
</g>
<g filter="url(#filter6_f_130_4158)">
<rect x="445.714" y="444.43" width="1028.57" height="56.5714" rx="18.401" fill="url(#paint8_linear_130_4158)"/>
</g>
<g clip-path="url(#clip0_130_4158)">
<path d="M919.042 1170.08H913.581V1142.9H920.498L929.296 1163.6L938.034 1142.9H944.951V1170.08H939.49V1152.64L931.966 1170.08H926.505L918.981 1152.58V1170.08H919.042Z" fill="url(#paint9_linear_130_4158)"/>
<path d="M950.048 1142.9H964.004C969.829 1142.9 974.744 1146.77 974.744 1152.52C974.744 1157.97 969.586 1162.15 964.004 1162.15H955.509V1170.08H950.048V1142.9ZM964.004 1147.92H955.509V1157.06H964.004C966.977 1157.06 969.283 1155.07 969.283 1152.52C969.283 1149.86 967.038 1147.92 964.004 1147.92Z" fill="url(#paint10_linear_130_4158)"/>
<path d="M983.238 1150.65L983.724 1153.13C985.726 1151.19 988.578 1150.04 991.794 1150.04C998.286 1150.04 1003.14 1154.46 1003.14 1160.27C1003.14 1166.2 998.286 1170.62 991.794 1170.62C988.578 1170.62 985.787 1169.53 983.784 1167.6V1175.53H978.323V1150.65H983.238ZM990.641 1154.88C986.575 1154.88 983.784 1157.12 983.784 1160.33C983.784 1163.6 986.575 1165.84 990.641 1165.84C994.827 1165.84 997.679 1163.48 997.679 1160.33C997.679 1157.18 994.706 1154.88 990.641 1154.88Z" fill="black"/>
<path d="M1024.2 1150.65H1029.66V1170.08H1024.74L1024.26 1166.87C1022.56 1169.23 1019.95 1170.68 1016.91 1170.68C1011.09 1170.68 1006.96 1166.2 1006.96 1159.73V1150.65H1012.42V1159.67C1012.42 1163.18 1014.85 1165.6 1018.37 1165.6C1021.77 1165.6 1024.2 1163.18 1024.2 1159.67V1150.65Z" fill="black"/>
<path d="M1039.97 1170.08H1034.51V1142.9H1039.97V1170.08Z" fill="black"/>
<path d="M1053.93 1170.69C1048.1 1170.69 1044.1 1168.15 1043.67 1164.09H1049.13C1049.44 1165.79 1051.14 1166.82 1053.93 1166.82C1056.17 1166.82 1057.81 1165.85 1057.81 1164.58C1057.81 1160.28 1044.16 1164.09 1044.16 1156.28C1044.16 1152.89 1047.68 1150.11 1053.32 1150.11C1059.15 1150.11 1062.61 1152.65 1062.91 1156.65H1057.45C1057.2 1155.07 1055.81 1153.98 1053.26 1153.98C1051.14 1153.98 1049.56 1154.89 1049.56 1156.22C1049.56 1160.4 1063.21 1156.16 1063.21 1164.58C1063.27 1168.09 1059.57 1170.69 1053.93 1170.69Z" fill="black"/>
<path d="M1071.22 1161.73C1071.83 1164.52 1074.32 1166.39 1077.59 1166.39C1079.9 1166.39 1081.78 1165.54 1082.81 1164.15H1088.33C1086.88 1168.09 1082.69 1170.69 1077.35 1170.69C1070.67 1170.69 1065.64 1166.33 1065.64 1160.46C1065.64 1154.53 1070.61 1150.11 1077.35 1150.11C1084.02 1150.11 1089 1154.28 1089 1160.46C1089 1160.88 1089 1161.37 1088.94 1161.79H1071.22V1161.73ZM1083.42 1159.01C1082.87 1156.22 1080.57 1154.47 1077.41 1154.47C1074.25 1154.47 1071.89 1156.28 1071.28 1159.01H1083.42Z" fill="black"/>
<path d="M918.982 1181.4V1183.1H918.375V1182.01H914.31V1183.1H913.643V1181.4H913.885C914.189 1181.4 914.431 1181.16 914.553 1180.68C914.674 1180.19 914.735 1179.53 914.795 1178.68L914.856 1177.11H918.375V1181.4H918.982ZM915.22 1180.43C915.16 1180.92 914.977 1181.22 914.795 1181.4H917.587V1177.65H915.402L915.342 1178.68C915.342 1179.41 915.281 1180.01 915.22 1180.43Z" fill="black"/>
<path d="M923.593 1181.4V1182.01H920.013V1177.04H923.532V1177.65H920.741V1179.16H923.229V1179.77H920.741V1181.4H923.593Z" fill="black"/>
<path d="M928.145 1177.53C928.509 1177.83 928.691 1178.25 928.691 1178.8C928.691 1179.34 928.509 1179.77 928.145 1180.07C927.781 1180.37 927.296 1180.55 926.628 1180.55H925.415V1182.01H924.687V1177.04H926.628C927.296 1177.04 927.781 1177.22 928.145 1177.53ZM927.66 1179.59C927.902 1179.4 928.024 1179.1 928.024 1178.74C928.024 1178.37 927.902 1178.13 927.66 1177.89C927.417 1177.71 927.053 1177.59 926.628 1177.59H925.415V1179.83H926.628C927.053 1179.89 927.417 1179.77 927.66 1179.59Z" fill="black"/>
<path d="M933.787 1179.83H932.816V1182.01H932.149V1179.83H931.178L929.782 1182.01H928.933L930.571 1179.4L929.054 1177.04H929.843L931.178 1179.22H932.149V1177.04H932.816V1179.22H933.787L935.122 1177.04H935.911L934.394 1179.46L935.971 1182.01H935.122L933.787 1179.83Z" fill="black"/>
<path d="M936.7 1177.04H937.428V1180.86L940.341 1177.04H941.008V1182.01H940.341V1178.19L937.367 1182.01H936.7V1177.04Z" fill="black"/>
<path d="M947.197 1182.01V1178.37L945.377 1181.4H945.074L943.253 1178.44V1182.01H942.586V1177.04H943.193L945.256 1180.55L947.319 1177.04H947.926V1182.01H947.197Z" fill="black"/>
<path d="M954.782 1177.53C955.146 1177.83 955.328 1178.25 955.328 1178.8C955.328 1179.34 955.146 1179.77 954.782 1180.07C954.418 1180.37 953.932 1180.55 953.265 1180.55H952.051V1182.01H951.323V1177.04H953.265C953.872 1177.04 954.418 1177.22 954.782 1177.53ZM954.236 1179.59C954.478 1179.4 954.6 1179.1 954.6 1178.74C954.6 1178.37 954.478 1178.13 954.236 1177.89C953.993 1177.71 953.629 1177.59 953.204 1177.59H951.991V1179.83H953.204C953.69 1179.89 953.993 1179.77 954.236 1179.59Z" fill="black"/>
<path d="M960.242 1177.04L958.058 1181.1C957.876 1181.4 957.694 1181.64 957.451 1181.83C957.209 1182.01 956.966 1182.07 956.663 1182.07C956.42 1182.07 956.238 1182.01 955.995 1181.95L956.177 1181.4C956.359 1181.46 956.48 1181.52 956.663 1181.52C956.966 1181.52 957.209 1181.34 957.451 1181.04L957.573 1180.86L955.57 1177.1H956.359L957.997 1180.25L959.636 1177.1H960.242V1177.04Z" fill="black"/>
<path d="M962.731 1179.83H961.7V1182.01H961.032V1177.04H961.7V1179.22H962.731L964.309 1177.04H965.098L963.338 1179.46L965.219 1182.01H964.43L962.731 1179.83Z" fill="black"/>
<path d="M969.951 1177.04L967.767 1181.1C967.585 1181.4 967.403 1181.64 967.16 1181.83C966.918 1182.01 966.675 1182.07 966.371 1182.07C966.129 1182.07 965.947 1182.01 965.704 1181.95L965.886 1181.4C966.068 1181.46 966.189 1181.52 966.371 1181.52C966.675 1181.52 966.918 1181.34 967.16 1181.04L967.282 1180.86L965.279 1177.1H966.068L967.706 1180.25L969.345 1177.1H969.951V1177.04Z" fill="black"/>
<path d="M976.989 1177.04V1182.01H976.261V1179.83H973.41V1182.01H972.681V1177.04H973.41V1179.16H976.261V1177.04H976.989Z" fill="black"/>
<path d="M981.784 1180.8H979.175L978.629 1182.01H977.84L980.085 1177.04H980.813L983.058 1182.01H982.33L981.784 1180.8ZM981.48 1180.19L980.388 1177.77L979.296 1180.19H981.48Z" fill="black"/>
<path d="M990.095 1177.04V1182.01H989.367V1177.65H986.515V1182.01H985.787V1177.04H990.095Z" fill="black"/>
<path d="M995.678 1177.04L993.494 1181.1C993.312 1181.4 993.13 1181.64 992.887 1181.83C992.644 1182.01 992.401 1182.07 992.098 1182.07C991.855 1182.07 991.673 1182.01 991.431 1181.95L991.613 1181.4C991.795 1181.46 991.916 1181.52 992.098 1181.52C992.401 1181.52 992.644 1181.34 992.887 1181.04L993.008 1180.8L991.006 1177.04H991.795L993.433 1180.19L995.071 1177.04H995.678Z" fill="black"/>
<path d="M1000.41 1177.04V1182.01H999.744V1177.65H997.56L997.499 1179.1C997.499 1179.77 997.438 1180.31 997.317 1180.74C997.256 1181.16 997.074 1181.46 996.892 1181.7C996.71 1181.95 996.468 1182.01 996.103 1182.01C995.982 1182.01 995.8 1182.01 995.679 1181.95L995.739 1181.34C995.8 1181.34 995.861 1181.34 995.982 1181.34C996.164 1181.34 996.346 1181.28 996.468 1181.1C996.589 1180.92 996.71 1180.68 996.771 1180.37C996.832 1180.07 996.892 1179.65 996.892 1179.1L996.953 1177.04H1000.41Z" fill="black"/>
<path d="M1005.51 1179.16C1005.81 1179.41 1005.99 1179.83 1005.99 1180.31C1005.99 1180.86 1005.81 1181.28 1005.51 1181.52C1005.14 1181.83 1004.66 1181.95 1004.05 1181.95H1001.99V1176.98H1002.72V1178.74H1004.17C1004.78 1178.8 1005.2 1178.92 1005.51 1179.16ZM1004.96 1181.16C1005.2 1180.98 1005.26 1180.68 1005.26 1180.37C1005.26 1179.71 1004.84 1179.35 1003.99 1179.35H1002.66V1181.46H1003.99C1004.42 1181.46 1004.72 1181.34 1004.96 1181.16Z" fill="black"/>
<path d="M1007.94 1181.77C1007.51 1181.52 1007.21 1181.22 1007.03 1180.86C1006.78 1180.5 1006.66 1180.01 1006.66 1179.59C1006.66 1179.1 1006.78 1178.68 1007.03 1178.32C1007.27 1177.95 1007.57 1177.65 1008 1177.41C1008.42 1177.17 1008.85 1177.11 1009.33 1177.11C1009.69 1177.11 1010.06 1177.17 1010.42 1177.29C1010.73 1177.41 1011.03 1177.59 1011.27 1177.89L1010.79 1178.32C1010.42 1177.95 1009.94 1177.71 1009.39 1177.71C1009.03 1177.71 1008.66 1177.77 1008.42 1177.95C1008.18 1178.13 1007.87 1178.32 1007.69 1178.62C1007.51 1178.92 1007.45 1179.22 1007.45 1179.59C1007.45 1179.95 1007.51 1180.25 1007.69 1180.56C1007.87 1180.86 1008.12 1181.1 1008.42 1181.22C1008.72 1181.4 1009.03 1181.46 1009.39 1181.46C1009.94 1181.46 1010.42 1181.28 1010.79 1180.86L1011.27 1181.28C1011.03 1181.52 1010.79 1181.71 1010.42 1181.89C1010.12 1182.01 1009.76 1182.07 1009.33 1182.07C1008.78 1182.07 1008.3 1181.95 1007.94 1181.77Z" fill="black"/>
<path d="M1015.76 1181.4V1182.01H1012.18V1177.04H1015.7V1177.65H1012.91V1179.16H1015.4V1179.77H1012.91V1181.4H1015.76Z" fill="black"/>
<path d="M1022.62 1179.89C1022.8 1180.07 1022.86 1180.37 1022.86 1180.68C1022.86 1181.1 1022.68 1181.46 1022.38 1181.64C1022.07 1181.89 1021.59 1182.01 1020.98 1182.01H1018.74V1177.04H1020.86C1021.41 1177.04 1021.83 1177.16 1022.13 1177.35C1022.44 1177.59 1022.62 1177.89 1022.62 1178.31C1022.62 1178.56 1022.56 1178.8 1022.44 1178.98C1022.32 1179.16 1022.13 1179.28 1021.89 1179.4C1022.19 1179.52 1022.44 1179.65 1022.62 1179.89ZM1019.46 1179.22H1020.86C1021.22 1179.22 1021.47 1179.16 1021.65 1179.04C1021.83 1178.92 1021.95 1178.68 1021.95 1178.44C1021.95 1178.19 1021.83 1177.95 1021.65 1177.83C1021.47 1177.71 1021.22 1177.65 1020.86 1177.65H1019.46V1179.22ZM1022.13 1180.61C1022.13 1180.31 1022.01 1180.13 1021.83 1180.01C1021.65 1179.89 1021.34 1179.83 1020.98 1179.83H1019.4V1181.52H1020.98C1021.77 1181.46 1022.13 1181.16 1022.13 1180.61Z" fill="black"/>
<path d="M1027.29 1180.8H1024.68L1024.14 1182.01H1023.35L1025.59 1177.04H1026.32L1028.56 1182.01H1027.84L1027.29 1180.8ZM1027.05 1180.19L1025.96 1177.77L1024.86 1180.19H1027.05Z" fill="black"/>
<path d="M1035.67 1177.04V1182.01H1029.42V1177.04H1030.14V1181.4H1032.21V1177.04H1032.87V1181.4H1034.94V1177.04H1035.67Z" fill="black"/>
<path d="M1040.82 1181.4V1182.01H1037.24V1177.04H1040.76V1177.65H1037.91V1179.16H1040.4V1179.77H1037.91V1181.4H1040.82Z" fill="black"/>
<path d="M1045.19 1177.65H1042.64V1182.01H1041.91V1177.04H1045.19V1177.65Z" fill="black"/>
<path d="M1046.28 1181.77C1045.86 1181.52 1045.56 1181.22 1045.31 1180.86C1045.07 1180.5 1044.95 1180.01 1044.95 1179.59C1044.95 1179.1 1045.07 1178.68 1045.31 1178.32C1045.56 1177.95 1045.86 1177.65 1046.28 1177.41C1046.71 1177.17 1047.13 1177.11 1047.62 1177.11C1048.1 1177.11 1048.59 1177.23 1048.95 1177.41C1049.38 1177.65 1049.68 1177.95 1049.92 1178.32C1050.17 1178.68 1050.29 1179.16 1050.29 1179.59C1050.29 1180.07 1050.17 1180.5 1049.92 1180.86C1049.68 1181.22 1049.38 1181.52 1048.95 1181.77C1048.53 1182.01 1048.1 1182.07 1047.62 1182.07C1047.13 1182.07 1046.71 1181.95 1046.28 1181.77ZM1048.65 1181.16C1048.95 1180.98 1049.2 1180.8 1049.32 1180.5C1049.44 1180.19 1049.56 1179.89 1049.56 1179.53C1049.56 1179.16 1049.5 1178.86 1049.32 1178.56C1049.14 1178.26 1048.89 1178.01 1048.65 1177.89C1048.41 1177.77 1048.04 1177.65 1047.68 1177.65C1047.32 1177.65 1047.01 1177.71 1046.71 1177.89C1046.41 1178.07 1046.16 1178.26 1046.04 1178.56C1045.86 1178.86 1045.8 1179.16 1045.8 1179.53C1045.8 1179.89 1045.86 1180.19 1046.04 1180.5C1046.22 1180.8 1046.47 1181.04 1046.71 1181.16C1047.01 1181.34 1047.32 1181.4 1047.68 1181.4C1047.98 1181.46 1048.35 1181.34 1048.65 1181.16Z" fill="black"/>
<path d="M1053.32 1177.04H1057.08V1177.65H1054.05V1179.04H1055.57C1056.17 1179.04 1056.6 1179.16 1056.9 1179.4C1057.2 1179.65 1057.39 1180.01 1057.39 1180.49C1057.39 1180.98 1057.2 1181.34 1056.9 1181.58C1056.54 1181.83 1056.11 1181.95 1055.44 1181.95H1053.32V1177.04ZM1055.44 1181.46C1055.87 1181.46 1056.17 1181.4 1056.36 1181.22C1056.6 1181.04 1056.66 1180.86 1056.66 1180.55C1056.66 1179.95 1056.23 1179.65 1055.38 1179.65H1053.99V1181.46H1055.44Z" fill="black"/>
<path d="M1058.54 1177.04H1059.27V1180.86L1062.18 1177.04H1062.85V1182.01H1062.18V1178.19L1059.15 1182.01H1058.54V1177.04Z" fill="black"/>
<path d="M1067.46 1179.89C1067.64 1180.07 1067.7 1180.37 1067.7 1180.61C1067.7 1180.86 1067.58 1181.16 1067.4 1181.4C1067.22 1181.64 1066.97 1181.76 1066.67 1181.89C1066.37 1182.01 1066 1182.07 1065.64 1182.07C1065.34 1182.07 1064.97 1182.01 1064.67 1181.95C1064.36 1181.83 1064.06 1181.7 1063.76 1181.52L1064 1180.98C1064.24 1181.16 1064.49 1181.28 1064.73 1181.34C1064.97 1181.4 1065.27 1181.46 1065.52 1181.46C1065.94 1181.46 1066.25 1181.4 1066.49 1181.22C1066.73 1181.04 1066.91 1180.8 1066.91 1180.55C1066.91 1180.31 1066.79 1180.13 1066.61 1179.95C1066.43 1179.83 1066.12 1179.77 1065.76 1179.77H1064.67V1179.22H1065.7C1066 1179.22 1066.25 1179.16 1066.43 1179.04C1066.61 1178.92 1066.67 1178.74 1066.67 1178.5C1066.67 1178.25 1066.55 1178.01 1066.31 1177.89C1066.06 1177.77 1065.76 1177.65 1065.4 1177.65C1065.15 1177.65 1064.91 1177.71 1064.67 1177.77C1064.43 1177.83 1064.18 1177.95 1064 1178.07L1063.76 1177.47C1064 1177.35 1064.24 1177.22 1064.55 1177.16C1064.85 1177.1 1065.09 1177.04 1065.4 1177.04C1065.76 1177.04 1066.06 1177.1 1066.37 1177.22C1066.67 1177.35 1066.91 1177.47 1067.1 1177.71C1067.28 1177.89 1067.34 1178.13 1067.34 1178.44C1067.34 1178.68 1067.28 1178.92 1067.16 1179.1C1067.03 1179.28 1066.85 1179.4 1066.55 1179.52C1067.03 1179.52 1067.28 1179.65 1067.46 1179.89Z" fill="black"/>
<path d="M1073.16 1177.04V1182.01H1072.5V1179.83H1069.64V1182.01H1068.92V1177.04H1069.64V1179.16H1072.5V1177.04H1073.16Z" fill="black"/>
<path d="M1078.32 1181.4V1182.01H1074.74V1177.04H1078.26V1177.65H1075.47V1179.16H1077.96V1179.77H1075.47V1181.4H1078.32Z" fill="black"/>
<path d="M1080.32 1181.77C1079.9 1181.52 1079.59 1181.22 1079.41 1180.86C1079.17 1180.5 1079.05 1180.01 1079.05 1179.59C1079.05 1179.1 1079.17 1178.68 1079.41 1178.32C1079.66 1177.95 1079.96 1177.65 1080.38 1177.41C1080.81 1177.17 1081.23 1177.11 1081.72 1177.11C1082.08 1177.11 1082.45 1177.17 1082.81 1177.29C1083.11 1177.41 1083.42 1177.59 1083.66 1177.89L1083.17 1178.32C1082.81 1177.95 1082.33 1177.71 1081.78 1177.71C1081.42 1177.71 1081.05 1177.77 1080.81 1177.95C1080.57 1178.13 1080.26 1178.32 1080.08 1178.62C1079.9 1178.92 1079.84 1179.22 1079.84 1179.59C1079.84 1179.95 1079.9 1180.25 1080.08 1180.56C1080.26 1180.86 1080.51 1181.1 1080.81 1181.22C1081.11 1181.4 1081.42 1181.46 1081.78 1181.46C1082.33 1181.46 1082.81 1181.28 1083.17 1180.86L1083.66 1181.28C1083.42 1181.52 1083.17 1181.71 1082.81 1181.89C1082.51 1182.01 1082.14 1182.07 1081.72 1182.07C1081.17 1182.07 1080.69 1181.95 1080.32 1181.77Z" fill="black"/>
<path d="M1087.61 1180.8H1085L1084.45 1182.01H1083.72L1085.97 1177.04H1086.69L1088.94 1182.01H1088.21L1087.61 1180.8ZM1087.36 1180.19L1086.27 1177.77L1085.18 1180.19H1087.36Z" fill="black"/>
<path d="M841.679 1163.79L855.513 1163.91C857.273 1164.03 858.729 1165.24 859.215 1167.06C861.156 1173.9 863.462 1190.24 866.314 1190.18C869.894 1190.12 873.595 1158.4 875.597 1158.4C876.993 1158.4 878.449 1177.71 881.18 1177.71C883.91 1177.71 886.216 1164.82 890.099 1164.82C893.983 1164.82 907.514 1163.54 907.514 1162.51C907.514 1161.61 897.199 1159.67 885.002 1159.19C883.304 1159.12 881.847 1157.91 881.362 1156.16C879.602 1149.98 878.813 1136 875.173 1136C870.258 1136 867.467 1167.9 866.375 1167.9C864.918 1167.9 863.159 1143.87 858.426 1143.87C854.482 1143.87 854.178 1159.12 848.657 1159.61C835.854 1160.7 835.732 1163.79 841.679 1163.79Z" fill="url(#paint11_linear_130_4158)"/>
<path d="M833.609 1164.93C835.05 1164.93 836.218 1163.85 836.218 1162.51C836.218 1161.18 835.05 1160.09 833.609 1160.09C832.168 1160.09 831 1161.18 831 1162.51C831 1163.85 832.168 1164.93 833.609 1164.93Z" fill="url(#paint12_linear_130_4158)"/>
</g>
<defs>
<filter id="filter0_i_130_4158" x="587" y="576" width="746" height="750" filterUnits="userSpaceOnUse" color-interpolation-filters="sRGB">
<feFlood flood-opacity="0" result="BackgroundImageFix"/>
<feBlend mode="normal" in="SourceGraphic" in2="BackgroundImageFix" result="shape"/>
<feColorMatrix in="SourceAlpha" type="matrix" values="0 0 0 0 0 0 0 0 0 0 0 0 0 0 0 0 0 0 127 0" result="hardAlpha"/>
<feOffset dy="4"/>
<feGaussianBlur stdDeviation="2.65"/>
<feComposite in2="hardAlpha" operator="arithmetic" k2="-1" k3="1"/>
<feColorMatrix type="matrix" values="0 0 0 0 0.440256 0 0 0 0 0.452264 0 0 0 0 0.776501 0 0 0 0.3 0"/>
<feBlend mode="normal" in2="shape" result="effect1_innerShadow_130_4158"/>
</filter>
<filter id="filter1_i_130_4158" x="690.377" y="1175.73" width="539.229" height="140.272" filterUnits="userSpaceOnUse" color-interpolation-filters="sRGB">
<feFlood flood-opacity="0" result="BackgroundImageFix"/>
<feBlend mode="normal" in="SourceGraphic" in2="BackgroundImageFix" result="shape"/>
<feColorMatrix in="SourceAlpha" type="matrix" values="0 0 0 0 0 0 0 0 0 0 0 0 0 0 0 0 0 0 127 0" result="hardAlpha"/>
<feOffset dy="4"/>
<feGaussianBlur stdDeviation="2"/>
<feComposite in2="hardAlpha" operator="arithmetic" k2="-1" k3="1"/>
<feColorMatrix type="matrix" values="0 0 0 0 1 0 0 0 0 1 0 0 0 0 1 0 0 0 0.25 0"/>
<feBlend mode="normal" in2="shape" result="effect1_innerShadow_130_4158"/>
</filter>
<filter id="filter2_f_130_4158" x="183.929" y="737.216" width="1552.14" height="558.711" filterUnits="userSpaceOnUse" color-interpolation-filters="sRGB">
<feFlood flood-opacity="0" result="BackgroundImageFix"/>
<feBlend mode="normal" in="SourceGraphic" in2="BackgroundImageFix" result="shape"/>
<feGaussianBlur stdDeviation="130.892" result="effect1_foregroundBlur_130_4158"/>
</filter>
<filter id="filter3_f_130_4158" x="183.929" y="608.645" width="1552.14" height="558.711" filterUnits="userSpaceOnUse" color-interpolation-filters="sRGB">
<feFlood flood-opacity="0" result="BackgroundImageFix"/>
<feBlend mode="normal" in="SourceGraphic" in2="BackgroundImageFix" result="shape"/>
<feGaussianBlur stdDeviation="130.892" result="effect1_foregroundBlur_130_4158"/>
</filter>
<filter id="filter4_f_130_4158" x="183.929" y="479.216" width="1552.14" height="558.711" filterUnits="userSpaceOnUse" color-interpolation-filters="sRGB">
<feFlood flood-opacity="0" result="BackgroundImageFix"/>
<feBlend mode="normal" in="SourceGraphic" in2="BackgroundImageFix" result="shape"/>
<feGaussianBlur stdDeviation="130.892" result="effect1_foregroundBlur_130_4158"/>
</filter>
<filter id="filter5_f_130_4158" x="183.929" y="349.786" width="1552.14" height="558.711" filterUnits="userSpaceOnUse" color-interpolation-filters="sRGB">
<feFlood flood-opacity="0" result="BackgroundImageFix"/>
<feBlend mode="normal" in="SourceGraphic" in2="BackgroundImageFix" result="shape"/>
<feGaussianBlur stdDeviation="130.892" result="effect1_foregroundBlur_130_4158"/>
</filter>
<filter id="filter6_f_130_4158" x="183.929" y="182.645" width="1552.14" height="580.14" filterUnits="userSpaceOnUse" color-interpolation-filters="sRGB">
<feFlood flood-opacity="0" result="BackgroundImageFix"/>
<feBlend mode="normal" in="SourceGraphic" in2="BackgroundImageFix" result="shape"/>
<feGaussianBlur stdDeviation="130.892" result="effect1_foregroundBlur_130_4158"/>
</filter>
<linearGradient id="paint0_linear_130_4158" x1="552.888" y1="948.85" x2="1280.86" y2="948.85" gradientUnits="userSpaceOnUse">
<stop stop-color="#4C3AFF"/>
<stop offset="1" stop-color="#49BCFF"/>
</linearGradient>
<linearGradient id="paint1_linear_130_4158" x1="960" y1="1002" x2="960" y2="1267.5" gradientUnits="userSpaceOnUse">
<stop stop-color="#F7F7F7"/>
<stop offset="1" stop-color="#F7F7F7" stop-opacity="0"/>
</linearGradient>
<linearGradient id="paint2_linear_130_4158" x1="555.071" y1="940.85" x2="1279.14" y2="940.85" gradientUnits="userSpaceOnUse">
<stop stop-color="#4C3AFF"/>
<stop offset="1" stop-color="#49BCFF"/>
</linearGradient>
<linearGradient id="paint3_linear_130_4158" x1="960" y1="993.716" x2="960" y2="1257.79" gradientUnits="userSpaceOnUse">
<stop stop-color="#F7F7F7"/>
<stop offset="1" stop-color="#F7F7F7" stop-opacity="0"/>
</linearGradient>
<linearGradient id="paint4_linear_130_4158" x1="398.68" y1="1016.56" x2="1402.39" y2="1016.56" gradientUnits="userSpaceOnUse">
<stop stop-color="#4C3AFF"/>
<stop offset="1" stop-color="#49BCFF"/>
</linearGradient>
<linearGradient id="paint5_linear_130_4158" x1="398.68" y1="887.994" x2="1402.39" y2="887.994" gradientUnits="userSpaceOnUse">
<stop stop-color="#4C3AFF"/>
<stop offset="1" stop-color="#49BCFF"/>
</linearGradient>
<linearGradient id="paint6_linear_130_4158" x1="398.68" y1="758.564" x2="1402.39" y2="758.564" gradientUnits="userSpaceOnUse">
<stop stop-color="#4C3AFF"/>
<stop offset="1" stop-color="#49BCFF"/>
</linearGradient>
<linearGradient id="paint7_linear_130_4158" x1="398.68" y1="629.135" x2="1402.39" y2="629.135" gradientUnits="userSpaceOnUse">
<stop stop-color="#4C3AFF"/>
<stop offset="1" stop-color="#49BCFF"/>
</linearGradient>
<linearGradient id="paint8_linear_130_4158" x1="398.68" y1="472.704" x2="1402.39" y2="472.704" gradientUnits="userSpaceOnUse">
<stop stop-color="#4C3AFF"/>
<stop offset="1" stop-color="#49BCFF"/>
</linearGradient>
<linearGradient id="paint9_linear_130_4158" x1="913.837" y1="1156.5" x2="968.43" y2="1156.5" gradientUnits="userSpaceOnUse">
<stop stop-color="#4C3AFF"/>
<stop offset="1" stop-color="#49BCFF"/>
</linearGradient>
<linearGradient id="paint10_linear_130_4158" x1="913.838" y1="1156.5" x2="968.43" y2="1156.5" gradientUnits="userSpaceOnUse">
<stop stop-color="#4C3AFF"/>
<stop offset="1" stop-color="#49BCFF"/>
</linearGradient>
<linearGradient id="paint11_linear_130_4158" x1="834.695" y1="1163.08" x2="902.647" y2="1163.08" gradientUnits="userSpaceOnUse">
<stop stop-color="#4C3AFF"/>
<stop offset="1" stop-color="#49BCFF"/>
</linearGradient>
<linearGradient id="paint12_linear_130_4158" x1="834.695" y1="1162.54" x2="902.647" y2="1162.54" gradientUnits="userSpaceOnUse">
<stop stop-color="#4C3AFF"/>
<stop offset="1" stop-color="#49BCFF"/>
</linearGradient>
<clipPath id="clip0_130_4158">
<rect width="258" height="54.18" fill="white" transform="translate(831 1136)"/>
</clipPath>
</defs>
</svg>
