<svg width="61" height="44" viewBox="0 0 61 44" fill="none" xmlns="http://www.w3.org/2000/svg">
<path d="M8.93296 22.823L19.874 22.919C21.2657 23.0149 22.4174 23.9747 22.8013 25.4143C24.3369 30.8369 26.1604 43.7934 28.4158 43.7454C31.247 43.6974 34.1742 18.5521 35.7578 18.5521C36.8615 18.5521 38.0132 33.8601 40.1726 33.8601C42.3321 33.8601 44.1556 23.6388 47.2268 23.6388C50.2979 23.6388 60.9991 22.6311 60.9991 21.8153C60.9991 21.0955 52.8413 19.5599 43.1958 19.176C41.8522 19.128 40.7005 18.1682 40.3166 16.7766C38.925 11.8819 38.3011 0.796875 35.4219 0.796875C31.5349 0.796875 29.3275 26.0861 28.4638 26.0861C27.3121 26.0861 25.9204 7.03521 22.1774 7.03521C19.0583 7.03521 18.8183 19.128 14.4515 19.5119C4.32619 20.3757 4.23022 22.823 8.93296 22.823Z" fill="white"/>
<path d="M2.55173 23.7355C3.69134 23.7355 4.61518 22.8761 4.61518 21.816C4.61518 20.7559 3.69134 19.8965 2.55173 19.8965C1.41212 19.8965 0.488281 20.7559 0.488281 21.816C0.488281 22.8761 1.41212 23.7355 2.55173 23.7355Z" fill="white"/>
</svg>
