<svg width="155" height="33" viewBox="0 0 155 33" fill="none" xmlns="http://www.w3.org/2000/svg">
<g clip-path="url(#clip0_215_68)">
<path d="M52.8936 20.5219H49.6128V4.1543H53.7685L59.0542 16.6214L64.3035 4.1543H68.4592V20.5219H65.1784V10.0233L60.6582 20.5219H57.3774L52.8571 9.98685V20.5219H52.8936Z" fill="url(#paint0_linear_215_68)"/>
<path d="M71.5215 4.1543H79.9058C83.4053 4.1543 86.358 6.48732 86.358 9.95039C86.358 13.2312 83.2595 15.7465 79.9058 15.7465H74.8023V20.5219H71.5215V4.1543ZM79.9058 7.17993H74.8023V12.6844H79.9058C81.692 12.6844 83.0772 11.4814 83.0772 9.95039C83.0772 8.34644 81.7284 7.17993 79.9058 7.17993Z" fill="url(#paint1_linear_215_68)"/>
<path d="M91.461 8.81961L91.7527 10.3142C92.9556 9.14769 94.6689 8.45508 96.601 8.45508C100.501 8.45508 103.418 11.1162 103.418 14.6157C103.418 18.1881 100.501 20.8492 96.601 20.8492C94.6689 20.8492 92.9921 20.1931 91.7891 19.0266V23.802H88.5083V8.81961H91.461ZM95.9083 11.3714C93.466 11.3714 91.7891 12.7201 91.7891 14.6522C91.7891 16.6206 93.466 17.9694 95.9083 17.9694C98.4236 17.9694 100.137 16.5477 100.137 14.6522C100.137 12.7566 98.3507 11.3714 95.9083 11.3714Z" fill="black"/>
<path d="M116.068 8.82031H119.348V20.5219H116.396L116.104 18.5898C115.083 20.0115 113.516 20.8864 111.693 20.8864C108.194 20.8864 105.715 18.1888 105.715 14.2883V8.82031H108.996V14.2519C108.996 16.3662 110.454 17.8243 112.568 17.8243C114.609 17.8243 116.068 16.3662 116.068 14.2519V8.82031Z" fill="black"/>
<path d="M125.545 20.5219H122.265V4.1543H125.545V20.5219Z" fill="black"/>
<path d="M133.93 20.8883C130.43 20.8883 128.024 19.3573 127.769 16.9149H131.05C131.232 17.9356 132.253 18.5553 133.93 18.5553C135.278 18.5553 136.263 17.972 136.263 17.2065C136.263 14.6183 128.061 16.9149 128.061 12.2124C128.061 10.171 130.175 8.49414 133.565 8.49414C137.065 8.49414 139.143 10.0252 139.325 12.4311H136.044C135.898 11.4833 135.06 10.8272 133.529 10.8272C132.253 10.8272 131.305 11.374 131.305 12.1759C131.305 14.6912 139.507 12.1395 139.507 17.2065C139.544 19.3208 137.32 20.8883 133.93 20.8883Z" fill="black"/>
<path d="M144.319 15.4932C144.684 17.1701 146.178 18.3001 148.147 18.3001C149.532 18.3001 150.662 17.7898 151.282 16.9513H154.599C153.724 19.3208 151.209 20.8883 148.001 20.8883C143.991 20.8883 140.965 18.2637 140.965 14.7277C140.965 11.1552 143.955 8.49414 148.001 8.49414C152.011 8.49414 155 11.0094 155 14.7277C155 14.9829 155 15.2745 154.963 15.5297H144.319V15.4932ZM151.646 13.8528C151.318 12.1759 149.933 11.1188 148.037 11.1188C146.142 11.1188 144.72 12.2124 144.355 13.8528H151.646Z" fill="black"/>
<path d="M52.8573 27.3421V28.3628H52.4928V27.7066H50.0504V28.3628H49.6494V27.3421H49.7952C49.9775 27.3421 50.1233 27.1963 50.1962 26.9047C50.2691 26.613 50.3056 26.212 50.342 25.7017L50.3785 24.7539H52.4928V27.3421H52.8573ZM50.5972 26.7588C50.5608 27.0505 50.4514 27.2327 50.342 27.3421H52.0189V25.082H50.7066L50.6701 25.7017C50.6701 26.1391 50.6337 26.5037 50.5972 26.7588Z" fill="black"/>
<path d="M55.6278 27.3395V27.704H53.4771V24.7148H55.5914V25.0794H53.9145V25.9907H55.4091V26.3552H53.9145V27.3395H55.6278Z" fill="black"/>
<path d="M58.362 25.0065C58.5808 25.1887 58.6901 25.4439 58.6901 25.772C58.6901 26.1001 58.5808 26.3552 58.362 26.5375C58.1433 26.7198 57.8517 26.8291 57.4507 26.8291H56.7216V27.704H56.2842V24.7148H57.4507C57.8517 24.7148 58.1433 24.8242 58.362 25.0065ZM58.0704 26.2459C58.2162 26.1365 58.2891 25.9543 58.2891 25.7355C58.2891 25.5168 58.2162 25.371 58.0704 25.2252C57.9246 25.1158 57.7059 25.0429 57.4507 25.0429H56.7216V26.3917H57.4507C57.7059 26.4282 57.9246 26.3552 58.0704 26.2459Z" fill="black"/>
<path d="M61.7517 26.3917H61.1685V27.704H60.7675V26.3917H60.1842L59.3458 27.704H58.8354L59.8197 26.1365L58.9084 24.7148H59.3823L60.1842 26.0272H60.7675V24.7148H61.1685V26.0272H61.7517L62.5537 24.7148H63.0276L62.1163 26.173L63.0641 27.704H62.5537L61.7517 26.3917Z" fill="black"/>
<path d="M63.5015 24.7148H63.9389V27.0114L65.6887 24.7148H66.0897V27.704H65.6887V25.4075L63.9025 27.704H63.5015V24.7148Z" fill="black"/>
<path d="M69.8085 27.704V25.5168L68.7149 27.3395H68.5327L67.4391 25.5533V27.704H67.0381V24.7148H67.4026L68.642 26.8291L69.8815 24.7148H70.246V27.704H69.8085Z" fill="black"/>
<path d="M74.365 25.0065C74.5837 25.1887 74.693 25.4439 74.693 25.772C74.693 26.1001 74.5837 26.3552 74.365 26.5375C74.1462 26.7198 73.8546 26.8291 73.4536 26.8291H72.7245V27.704H72.2871V24.7148H73.4536C73.8182 24.7148 74.1462 24.8242 74.365 25.0065ZM74.0369 26.2459C74.1827 26.1365 74.2556 25.9543 74.2556 25.7355C74.2556 25.5168 74.1827 25.371 74.0369 25.2252C73.8911 25.1158 73.6723 25.0429 73.4172 25.0429H72.6881V26.3917H73.4172C73.7088 26.4282 73.8911 26.3552 74.0369 26.2459Z" fill="black"/>
<path d="M77.6458 24.7148L76.3335 27.1572C76.2241 27.3395 76.1147 27.4853 75.9689 27.5947C75.8231 27.704 75.6773 27.7405 75.495 27.7405C75.3492 27.7405 75.2399 27.704 75.094 27.6676L75.2034 27.3395C75.3128 27.3759 75.3857 27.4124 75.495 27.4124C75.6773 27.4124 75.8231 27.303 75.9689 27.1208L76.0418 27.0114L74.8389 24.7513H75.3128L76.297 26.6469L77.2812 24.7513H77.6458V24.7148Z" fill="black"/>
<path d="M79.1403 26.3917H78.5206V27.704H78.1196V24.7148H78.5206V26.0272H79.1403L80.0881 24.7148H80.562L79.5049 26.173L80.6349 27.704H80.161L79.1403 26.3917Z" fill="black"/>
<path d="M83.4783 24.7148L82.166 27.1572C82.0566 27.3395 81.9473 27.4853 81.8014 27.5947C81.6556 27.704 81.5098 27.7405 81.3275 27.7405C81.1817 27.7405 81.0724 27.704 80.9266 27.6676L81.0359 27.3395C81.1453 27.3759 81.2182 27.4124 81.3275 27.4124C81.5098 27.4124 81.6556 27.303 81.8014 27.1208L81.8744 27.0114L80.6714 24.7513H81.1453L82.1295 26.6469L83.1138 24.7513H83.4783V24.7148Z" fill="black"/>
<path d="M87.7068 24.7148V27.704H87.2694V26.3917H85.5561V27.704H85.1187V24.7148H85.5561V25.9907H87.2694V24.7148H87.7068Z" fill="black"/>
<path d="M90.5868 26.975H89.0193L88.6912 27.704H88.2173L89.5661 24.7148H90.0035L91.3523 27.704H90.9148L90.5868 26.975ZM90.4045 26.6104L89.7483 25.1523L89.0922 26.6104H90.4045Z" fill="black"/>
<path d="M95.5809 24.7148V27.704H95.1434V25.0794H93.4301V27.704H92.9927V24.7148H95.5809Z" fill="black"/>
<path d="M98.9343 24.7148L97.622 27.1572C97.5127 27.3395 97.4033 27.4853 97.2575 27.5947C97.1117 27.704 96.9659 27.7405 96.7836 27.7405C96.6378 27.7405 96.5284 27.704 96.3826 27.6676L96.492 27.3395C96.6013 27.3759 96.6742 27.4124 96.7836 27.4124C96.9659 27.4124 97.1117 27.303 97.2575 27.1208L97.3304 26.975L96.1274 24.7148H96.6013L97.5856 26.6104L98.5698 24.7148H98.9343Z" fill="black"/>
<path d="M101.778 24.7148V27.704H101.377V25.0794H100.065L100.028 25.9543C100.028 26.3552 99.9917 26.6833 99.9188 26.9385C99.8824 27.1937 99.773 27.3759 99.6636 27.5218C99.5543 27.6676 99.4085 27.704 99.1897 27.704C99.1168 27.704 99.0075 27.704 98.9346 27.6676L98.971 27.303C99.0075 27.303 99.0439 27.303 99.1168 27.303C99.2262 27.303 99.3356 27.2666 99.4085 27.1572C99.4814 27.0479 99.5543 26.902 99.5907 26.7198C99.6272 26.5375 99.6636 26.2823 99.6636 25.9543L99.7001 24.7148H101.778Z" fill="black"/>
<path d="M104.84 25.992C105.022 26.1378 105.132 26.393 105.132 26.6846C105.132 27.0127 105.022 27.2679 104.84 27.4137C104.621 27.596 104.33 27.6689 103.965 27.6689H102.726V24.6797H103.163V25.7368H104.038C104.402 25.7733 104.658 25.8462 104.84 25.992ZM104.512 27.195C104.658 27.0856 104.694 26.9033 104.694 26.7211C104.694 26.3201 104.439 26.1014 103.929 26.1014H103.127V27.3772H103.929C104.184 27.3772 104.366 27.3043 104.512 27.195Z" fill="black"/>
<path d="M106.298 27.5608C106.043 27.415 105.861 27.2327 105.751 27.014C105.606 26.7953 105.533 26.5037 105.533 26.2485C105.533 25.9569 105.606 25.7017 105.751 25.483C105.897 25.2643 106.08 25.082 106.335 24.9362C106.59 24.7904 106.845 24.7539 107.137 24.7539C107.355 24.7539 107.574 24.7904 107.793 24.8633C107.975 24.9362 108.157 25.0455 108.303 25.2278L108.012 25.483C107.793 25.2643 107.501 25.1184 107.173 25.1184C106.954 25.1184 106.736 25.1549 106.59 25.2643C106.444 25.3736 106.262 25.483 106.152 25.6652C106.043 25.8475 106.007 26.0298 106.007 26.2485C106.007 26.4672 106.043 26.6495 106.152 26.8318C106.262 27.014 106.408 27.1598 106.59 27.2327C106.772 27.3421 106.954 27.3786 107.173 27.3786C107.501 27.3786 107.793 27.2692 108.012 27.014L108.303 27.2692C108.157 27.415 108.012 27.5244 107.793 27.6337C107.611 27.7066 107.392 27.7431 107.137 27.7431C106.809 27.7431 106.517 27.6702 106.298 27.5608Z" fill="black"/>
<path d="M111.001 27.3395V27.704H108.85V24.7148H110.964V25.0794H109.288V25.9907H110.782V26.3552H109.288V27.3395H111.001Z" fill="black"/>
<path d="M115.12 26.4282C115.229 26.5375 115.265 26.7198 115.265 26.902C115.265 27.1572 115.156 27.3759 114.974 27.4853C114.792 27.6311 114.5 27.704 114.135 27.704H112.787V24.7148H114.062C114.391 24.7148 114.646 24.7878 114.828 24.8971C115.01 25.0429 115.12 25.2252 115.12 25.4804C115.12 25.6262 115.083 25.772 115.01 25.8814C114.937 25.9907 114.828 26.0636 114.682 26.1365C114.864 26.2094 115.01 26.2823 115.12 26.4282ZM113.224 26.0272H114.062C114.281 26.0272 114.427 25.9907 114.536 25.9178C114.646 25.8449 114.719 25.6991 114.719 25.5533C114.719 25.4075 114.646 25.2616 114.536 25.1887C114.427 25.1158 114.281 25.0794 114.062 25.0794H113.224V26.0272ZM114.828 26.8656C114.828 26.6833 114.755 26.574 114.646 26.5011C114.536 26.4282 114.354 26.3917 114.135 26.3917H113.188V27.4124H114.135C114.609 27.3759 114.828 27.1937 114.828 26.8656Z" fill="black"/>
<path d="M117.927 26.975H116.359L116.031 27.704H115.557L116.906 24.7148H117.343L118.692 27.704H118.255L117.927 26.975ZM117.781 26.6104L117.125 25.1523L116.468 26.6104H117.781Z" fill="black"/>
<path d="M122.958 24.7148V27.704H119.203V24.7148H119.641V27.3395H120.88V24.7148H121.281V27.3395H122.52V24.7148H122.958Z" fill="black"/>
<path d="M126.056 27.3395V27.704H123.905V24.7148H126.019V25.0794H124.306V25.9907H125.8V26.3552H124.306V27.3395H126.056Z" fill="black"/>
<path d="M128.681 25.0794H127.15V27.704H126.712V24.7148H128.681V25.0794Z" fill="black"/>
<path d="M129.337 27.5608C129.081 27.415 128.899 27.2327 128.753 27.014C128.608 26.7953 128.535 26.5037 128.535 26.2485C128.535 25.9569 128.608 25.7017 128.753 25.483C128.899 25.2643 129.081 25.082 129.337 24.9362C129.592 24.7904 129.847 24.7539 130.139 24.7539C130.43 24.7539 130.722 24.8268 130.941 24.9362C131.196 25.082 131.378 25.2643 131.524 25.483C131.67 25.7017 131.743 25.9933 131.743 26.2485C131.743 26.5401 131.67 26.7953 131.524 27.014C131.378 27.2327 131.196 27.415 130.941 27.5608C130.685 27.7066 130.43 27.7431 130.139 27.7431C129.847 27.7431 129.592 27.6702 129.337 27.5608ZM130.758 27.1963C130.941 27.0869 131.086 26.9776 131.159 26.7953C131.232 26.613 131.305 26.4308 131.305 26.212C131.305 25.9933 131.269 25.8111 131.159 25.6288C131.05 25.4465 130.904 25.3007 130.758 25.2278C130.613 25.1549 130.394 25.082 130.175 25.082C129.956 25.082 129.774 25.1184 129.592 25.2278C129.41 25.3372 129.264 25.4465 129.191 25.6288C129.081 25.8111 129.045 25.9933 129.045 26.212C129.045 26.4308 129.081 26.613 129.191 26.7953C129.3 26.9776 129.446 27.1234 129.592 27.1963C129.774 27.3056 129.956 27.3421 130.175 27.3421C130.357 27.3786 130.576 27.3056 130.758 27.1963Z" fill="black"/>
<path d="M133.565 24.7148H135.826V25.0794H134.003V25.9178H134.914C135.279 25.9178 135.534 25.9907 135.716 26.1365C135.898 26.2823 136.008 26.5011 136.008 26.7927C136.008 27.0843 135.898 27.303 135.716 27.4489C135.497 27.5947 135.242 27.6676 134.841 27.6676H133.565V24.7148ZM134.841 27.3759C135.096 27.3759 135.279 27.3395 135.388 27.2301C135.534 27.1208 135.57 27.0114 135.57 26.8291C135.57 26.4646 135.315 26.2823 134.805 26.2823H133.966V27.3759H134.841Z" fill="black"/>
<path d="M136.7 24.7148H137.138V27.0114L138.887 24.7148H139.288V27.704H138.887V25.4075L137.065 27.704H136.7V24.7148Z" fill="black"/>
<path d="M142.059 26.4282C142.168 26.5375 142.204 26.7198 142.204 26.8656C142.204 27.0114 142.132 27.1937 142.022 27.3395C141.913 27.4853 141.767 27.5582 141.585 27.6311C141.402 27.704 141.184 27.7405 140.965 27.7405C140.783 27.7405 140.564 27.704 140.382 27.6676C140.199 27.5947 140.017 27.5218 139.835 27.4124L139.981 27.0843C140.127 27.1937 140.272 27.2666 140.418 27.303C140.564 27.3395 140.746 27.3759 140.892 27.3759C141.147 27.3759 141.33 27.3395 141.475 27.2301C141.621 27.1208 141.731 26.975 141.731 26.8291C141.731 26.6833 141.658 26.574 141.548 26.4646C141.439 26.3917 141.257 26.3552 141.038 26.3552H140.382V26.0272H141.001C141.184 26.0272 141.33 25.9907 141.439 25.9178C141.548 25.8449 141.585 25.7355 141.585 25.5897C141.585 25.4439 141.512 25.2981 141.366 25.2252C141.22 25.1523 141.038 25.0794 140.819 25.0794C140.673 25.0794 140.528 25.1158 140.382 25.1523C140.236 25.1887 140.09 25.2616 139.981 25.3346L139.835 24.97C139.981 24.8971 140.127 24.8242 140.309 24.7877C140.491 24.7513 140.637 24.7148 140.819 24.7148C141.038 24.7148 141.22 24.7513 141.402 24.8242C141.585 24.8971 141.731 24.97 141.84 25.1158C141.949 25.2252 141.986 25.371 141.986 25.5533C141.986 25.6991 141.949 25.8449 141.876 25.9543C141.803 26.0636 141.694 26.1365 141.512 26.2094C141.803 26.2094 141.949 26.2823 142.059 26.4282Z" fill="black"/>
<path d="M145.485 24.7148V27.704H145.084V26.3917H143.371V27.704H142.934V24.7148H143.371V25.9907H145.084V24.7148H145.485Z" fill="black"/>
<path d="M148.584 27.3395V27.704H146.433V24.7148H148.547V25.0794H146.871V25.9907H148.365V26.3552H146.871V27.3395H148.584Z" fill="black"/>
<path d="M149.787 27.5608C149.532 27.415 149.35 27.2327 149.24 27.014C149.094 26.7953 149.021 26.5037 149.021 26.2485C149.021 25.9569 149.094 25.7017 149.24 25.483C149.386 25.2643 149.568 25.082 149.823 24.9362C150.079 24.7904 150.334 24.7539 150.625 24.7539C150.844 24.7539 151.063 24.7904 151.282 24.8633C151.464 24.9362 151.646 25.0455 151.792 25.2278L151.5 25.483C151.282 25.2643 150.99 25.1184 150.662 25.1184C150.443 25.1184 150.224 25.1549 150.079 25.2643C149.933 25.3736 149.751 25.483 149.641 25.6652C149.532 25.8475 149.495 26.0298 149.495 26.2485C149.495 26.4672 149.532 26.6495 149.641 26.8318C149.751 27.014 149.896 27.1598 150.079 27.2327C150.261 27.3421 150.443 27.3786 150.662 27.3786C150.99 27.3786 151.282 27.2692 151.5 27.014L151.792 27.2692C151.646 27.415 151.5 27.5244 151.282 27.6337C151.099 27.7066 150.881 27.7431 150.625 27.7431C150.297 27.7431 150.006 27.6702 149.787 27.5608Z" fill="black"/>
<path d="M154.162 26.975H152.594L152.266 27.704H151.829L153.177 24.7148H153.615L154.964 27.704H154.526L154.162 26.975ZM154.016 26.6104L153.36 25.1523L152.703 26.6104H154.016Z" fill="black"/>
<path d="M6.41524 16.7321L14.7266 16.805C15.7838 16.8779 16.6587 17.607 16.9503 18.7006C18.1168 22.8198 19.502 32.6623 21.2153 32.6258C23.3661 32.5894 25.5897 13.4878 26.7927 13.4878C27.6311 13.4878 28.506 25.1164 30.1464 25.1164C31.7868 25.1164 33.1721 17.3518 35.5051 17.3518C37.8381 17.3518 45.9672 16.5863 45.9672 15.9666C45.9672 15.4198 39.7701 14.2533 32.443 13.9617C31.4223 13.9252 30.5474 13.1961 30.2558 12.139C29.1986 8.42074 28.7247 0 26.5375 0C23.5848 0 21.908 19.211 21.2518 19.211C20.3769 19.211 19.3198 4.73895 16.4764 4.73895C14.1069 4.73895 13.9247 13.9252 10.6074 14.2168C2.91571 14.873 2.84281 16.7321 6.41524 16.7321Z" fill="url(#paint2_linear_215_68)"/>
<path d="M1.5675 17.4241C2.4332 17.4241 3.135 16.7713 3.135 15.9659C3.135 15.1606 2.4332 14.5078 1.5675 14.5078C0.701793 14.5078 0 15.1606 0 15.9659C0 16.7713 0.701793 17.4241 1.5675 17.4241Z" fill="url(#paint3_linear_215_68)"/>
</g>
<defs>
<linearGradient id="paint0_linear_215_68" x1="49.767" y1="12.344" x2="82.5647" y2="12.344" gradientUnits="userSpaceOnUse">
<stop stop-color="#4C3AFF"/>
<stop offset="1" stop-color="#49BCFF"/>
</linearGradient>
<linearGradient id="paint1_linear_215_68" x1="49.7671" y1="12.344" x2="82.5649" y2="12.344" gradientUnits="userSpaceOnUse">
<stop stop-color="#4C3AFF"/>
<stop offset="1" stop-color="#49BCFF"/>
</linearGradient>
<linearGradient id="paint2_linear_215_68" x1="2.21934" y1="16.3064" x2="43.0431" y2="16.3064" gradientUnits="userSpaceOnUse">
<stop stop-color="#4C3AFF"/>
<stop offset="1" stop-color="#49BCFF"/>
</linearGradient>
<linearGradient id="paint3_linear_215_68" x1="2.2199" y1="15.9796" x2="43.0437" y2="15.9796" gradientUnits="userSpaceOnUse">
<stop stop-color="#4C3AFF"/>
<stop offset="1" stop-color="#49BCFF"/>
</linearGradient>
<clipPath id="clip0_215_68">
<rect width="155" height="32.6258" fill="white"/>
</clipPath>
</defs>
</svg>
