<svg width="174" height="37" viewBox="0 0 174 37" fill="none" xmlns="http://www.w3.org/2000/svg">
<g clip-path="url(#clip0_126_721)">
<path d="M59.2472 22.986H55.5723V4.65234H60.2271L66.1478 18.6169L72.0276 4.65234H76.6825V22.986H73.0076V11.2263L67.9444 22.986H64.2695L59.2063 11.1855V22.986H59.2472Z" fill="url(#paint0_linear_126_721)"/>
<path d="M80.1124 4.65234H89.5038C93.4237 4.65234 96.7311 7.2656 96.7311 11.1447C96.7311 14.8195 93.2604 17.637 89.5038 17.637H83.7873V22.986H80.1124V4.65234ZM89.5038 8.04141H83.7873V14.2071H89.5038C91.5046 14.2071 93.0562 12.8596 93.0562 11.1447C93.0562 9.34804 91.5454 8.04141 89.5038 8.04141Z" fill="url(#paint1_linear_126_721)"/>
<path d="M102.447 9.87902L102.774 11.5531C104.121 10.2465 106.04 9.4707 108.204 9.4707C112.573 9.4707 115.84 12.4514 115.84 16.3713C115.84 20.3729 112.573 23.3536 108.204 23.3536C106.04 23.3536 104.162 22.6187 102.815 21.312V26.661H99.1396V9.87902H102.447ZM107.429 12.7373C104.693 12.7373 102.815 14.2481 102.815 16.4122C102.815 18.6171 104.693 20.1279 107.429 20.1279C110.246 20.1279 112.165 18.5354 112.165 16.4122C112.165 14.2889 110.164 12.7373 107.429 12.7373Z" fill="black"/>
<path d="M130.009 9.87891H133.684V22.986H130.377L130.05 20.8219C128.907 22.4144 127.151 23.3943 125.11 23.3943C121.19 23.3943 118.413 20.3728 118.413 16.0037V9.87891H122.088V15.9629C122.088 18.3312 123.721 19.9644 126.09 19.9644C128.376 19.9644 130.009 18.3312 130.009 15.9629V9.87891Z" fill="black"/>
<path d="M140.625 22.986H136.95V4.65234H140.625V22.986Z" fill="black"/>
<path d="M150.017 23.3966C146.097 23.3966 143.402 21.6817 143.116 18.9459H146.791C146.995 20.0892 148.139 20.7833 150.017 20.7833C151.528 20.7833 152.63 20.13 152.63 19.2726C152.63 16.3735 143.443 18.9459 143.443 13.6786C143.443 11.392 145.811 9.51367 149.609 9.51367C153.528 9.51367 155.856 11.2286 156.06 13.9235H152.385C152.222 12.8619 151.283 12.1269 149.568 12.1269C148.139 12.1269 147.077 12.7394 147.077 13.6377C147.077 16.4551 156.264 13.5969 156.264 19.2726C156.305 21.6408 153.814 23.3966 150.017 23.3966Z" fill="black"/>
<path d="M161.655 17.3534C162.063 19.2317 163.737 20.4975 165.942 20.4975C167.494 20.4975 168.76 19.9259 169.454 18.9867H173.17C172.19 21.6408 169.372 23.3966 165.779 23.3966C161.288 23.3966 157.898 20.4567 157.898 16.496C157.898 12.4944 161.247 9.51367 165.779 9.51367C170.271 9.51367 173.619 12.3311 173.619 16.496C173.619 16.7818 173.619 17.1085 173.578 17.3943H161.655V17.3534ZM169.862 15.516C169.495 13.6377 167.943 12.4536 165.82 12.4536C163.697 12.4536 162.104 13.6786 161.696 15.516H169.862Z" fill="black"/>
<path d="M59.2065 30.6256V31.7689H58.7982V31.034H56.0624V31.7689H55.6133V30.6256H55.7766C55.9808 30.6256 56.1441 30.4623 56.2258 30.1357C56.3074 29.809 56.3483 29.3598 56.3891 28.7882L56.4299 27.7266H58.7982V30.6256H59.2065ZM56.6749 29.9723C56.6341 30.299 56.5116 30.5031 56.3891 30.6256H58.2674V28.0941H56.7974L56.7566 28.7882C56.7566 29.2782 56.7158 29.6865 56.6749 29.9723Z" fill="black"/>
<path d="M62.3095 30.6235V31.0318H59.9004V27.6836H62.2687V28.0919H60.3904V29.1127H62.0645V29.521H60.3904V30.6235H62.3095Z" fill="black"/>
<path d="M65.3724 28.0102C65.6174 28.2144 65.7398 28.5002 65.7398 28.8677C65.7398 29.2352 65.6174 29.521 65.3724 29.7252C65.1274 29.9294 64.8007 30.0519 64.3516 30.0519H63.5349V31.0318H63.0449V27.6836H64.3516C64.8007 27.6836 65.1274 27.8061 65.3724 28.0102ZM65.0457 29.3985C65.209 29.276 65.2907 29.0719 65.2907 28.8269C65.2907 28.5819 65.209 28.4186 65.0457 28.2552C64.8824 28.1327 64.6374 28.0511 64.3516 28.0511H63.5349V29.5619H64.3516C64.6374 29.6027 64.8824 29.521 65.0457 29.3985Z" fill="black"/>
<path d="M69.1689 29.5619H68.5156V31.0318H68.0664V29.5619H67.4131L66.474 31.0318H65.9023L67.0048 29.276L65.984 27.6836H66.5148L67.4131 29.1536H68.0664V27.6836H68.5156V29.1536H69.1689L70.0672 27.6836H70.598L69.5772 29.3169L70.6389 31.0318H70.0672L69.1689 29.5619Z" fill="black"/>
<path d="M71.1289 27.6836H71.6189V30.256L73.5788 27.6836H74.028V31.0318H73.5788V28.4594L71.5781 31.0318H71.1289V27.6836Z" fill="black"/>
<path d="M78.1931 31.0318V28.5819L76.9681 30.6235H76.764L75.539 28.6227V31.0318H75.0898V27.6836H75.4982L76.8865 30.0519L78.2748 27.6836H78.6831V31.0318H78.1931Z" fill="black"/>
<path d="M83.2981 28.0102C83.5431 28.2144 83.6656 28.5002 83.6656 28.8677C83.6656 29.2352 83.5431 29.521 83.2981 29.7252C83.0531 29.9294 82.7265 30.0519 82.2773 30.0519H81.4607V31.0318H80.9707V27.6836H82.2773C82.6857 27.6836 83.0531 27.8061 83.2981 28.0102ZM82.9306 29.3985C83.094 29.276 83.1756 29.0719 83.1756 28.8269C83.1756 28.5819 83.094 28.4186 82.9306 28.2552C82.7673 28.1327 82.5223 28.0511 82.2365 28.0511H81.4199V29.5619H82.2365C82.5632 29.6027 82.7673 29.521 82.9306 29.3985Z" fill="black"/>
<path d="M86.9722 27.6836L85.5022 30.4193C85.3797 30.6235 85.2572 30.7868 85.0939 30.9093C84.9306 31.0318 84.7673 31.0727 84.5631 31.0727C84.3998 31.0727 84.2773 31.0318 84.1139 30.991L84.2364 30.6235C84.3589 30.6643 84.4406 30.7052 84.5631 30.7052C84.7673 30.7052 84.9306 30.5827 85.0939 30.3785L85.1756 30.256L83.8281 27.7244H84.3589L85.4614 29.8477L86.5639 27.7244H86.9722V27.6836Z" fill="black"/>
<path d="M88.6472 29.5619H87.9531V31.0318H87.5039V27.6836H87.9531V29.1536H88.6472L89.7088 27.6836H90.2397L89.0555 29.3169L90.3213 31.0318H89.7905L88.6472 29.5619Z" fill="black"/>
<path d="M93.5054 27.6836L92.0354 30.4193C91.9129 30.6235 91.7904 30.7868 91.6271 30.9093C91.4638 31.0318 91.3005 31.0727 91.0963 31.0727C90.933 31.0727 90.8105 31.0318 90.6472 30.991L90.7696 30.6235C90.8921 30.6643 90.9738 30.7052 91.0963 30.7052C91.3005 30.7052 91.4638 30.5827 91.6271 30.3785L91.7088 30.256L90.3613 27.7244H90.8921L91.9946 29.8477L93.0971 27.7244H93.5054V27.6836Z" fill="black"/>
<path d="M98.2419 27.6836V31.0318H97.7519V29.5619H95.8328V31.0318H95.3428V27.6836H95.8328V29.1127H97.7519V27.6836H98.2419Z" fill="black"/>
<path d="M101.469 30.2152H99.7128L99.3453 31.0318H98.8145L100.325 27.6836H100.815L102.326 31.0318H101.836L101.469 30.2152ZM101.264 29.8069L100.529 28.1736L99.7944 29.8069H101.264Z" fill="black"/>
<path d="M107.061 27.6836V31.0318H106.571V28.0919H104.652V31.0318H104.162V27.6836H107.061Z" fill="black"/>
<path d="M110.818 27.6836L109.348 30.4193C109.225 30.6235 109.103 30.7868 108.94 30.9093C108.776 31.0318 108.613 31.0727 108.409 31.0727C108.245 31.0727 108.123 31.0318 107.96 30.991L108.082 30.6235C108.205 30.6643 108.286 30.7052 108.409 30.7052C108.613 30.7052 108.776 30.5827 108.94 30.3785L109.021 30.2152L107.674 27.6836H108.205L109.307 29.8069L110.41 27.6836H110.818Z" fill="black"/>
<path d="M114.003 27.6836V31.0318H113.554V28.0919H112.084L112.043 29.0719C112.043 29.521 112.002 29.8885 111.921 30.1744C111.88 30.4602 111.757 30.6643 111.635 30.8277C111.513 30.991 111.349 31.0318 111.104 31.0318C111.023 31.0318 110.9 31.0318 110.818 30.991L110.859 30.5827C110.9 30.5827 110.941 30.5827 111.023 30.5827C111.145 30.5827 111.268 30.5418 111.349 30.4193C111.431 30.2968 111.513 30.1335 111.553 29.9294C111.594 29.7252 111.635 29.4394 111.635 29.0719L111.676 27.6836H114.003Z" fill="black"/>
<path d="M117.433 29.1145C117.637 29.2778 117.759 29.5636 117.759 29.8903C117.759 30.2578 117.637 30.5436 117.433 30.7069C117.188 30.9111 116.861 30.9928 116.453 30.9928H115.064V27.6445H115.554V28.8287H116.534C116.943 28.8695 117.229 28.9512 117.433 29.1145ZM117.065 30.4619C117.229 30.3395 117.269 30.1353 117.269 29.9311C117.269 29.482 116.984 29.237 116.412 29.237H115.514V30.6661H116.412C116.698 30.6661 116.902 30.5844 117.065 30.4619Z" fill="black"/>
<path d="M119.066 30.8706C118.781 30.7073 118.576 30.5031 118.454 30.2582C118.291 30.0132 118.209 29.6865 118.209 29.4007C118.209 29.074 118.291 28.7882 118.454 28.5432C118.617 28.2982 118.821 28.0941 119.107 27.9307C119.393 27.7674 119.679 27.7266 120.006 27.7266C120.251 27.7266 120.496 27.7674 120.741 27.8491C120.945 27.9307 121.149 28.0532 121.312 28.2574L120.986 28.5432C120.741 28.2982 120.414 28.1349 120.046 28.1349C119.801 28.1349 119.556 28.1757 119.393 28.2982C119.23 28.4207 119.026 28.5432 118.903 28.7474C118.781 28.9515 118.74 29.1557 118.74 29.4007C118.74 29.6457 118.781 29.8498 118.903 30.054C119.026 30.2582 119.189 30.4215 119.393 30.5031C119.597 30.6256 119.801 30.6665 120.046 30.6665C120.414 30.6665 120.741 30.544 120.986 30.2582L121.312 30.544C121.149 30.7073 120.986 30.8298 120.741 30.9523C120.536 31.034 120.291 31.0748 120.006 31.0748C119.638 31.0748 119.311 30.9931 119.066 30.8706Z" fill="black"/>
<path d="M124.334 30.6235V31.0318H121.925V27.6836H124.293V28.0919H122.415V29.1127H124.089V29.521H122.415V30.6235H124.334Z" fill="black"/>
<path d="M128.947 29.6027C129.07 29.7252 129.111 29.9294 129.111 30.1335C129.111 30.4193 128.988 30.6643 128.784 30.7868C128.58 30.9502 128.253 31.0318 127.845 31.0318H126.334V27.6836H127.763C128.131 27.6836 128.416 27.7653 128.621 27.8878C128.825 28.0511 128.947 28.2552 128.947 28.5411C128.947 28.7044 128.906 28.8677 128.825 28.9902C128.743 29.1127 128.621 29.1944 128.457 29.276C128.661 29.3577 128.825 29.4394 128.947 29.6027ZM126.824 29.1536H127.763C128.008 29.1536 128.171 29.1127 128.294 29.0311C128.416 28.9494 128.498 28.7861 128.498 28.6227C128.498 28.4594 128.416 28.2961 128.294 28.2144C128.171 28.1327 128.008 28.0919 127.763 28.0919H126.824V29.1536ZM128.621 30.0927C128.621 29.8885 128.539 29.766 128.416 29.6844C128.294 29.6027 128.09 29.5619 127.845 29.5619H126.783V30.7052H127.845C128.376 30.6643 128.621 30.4602 128.621 30.0927Z" fill="black"/>
<path d="M132.092 30.2152H130.336L129.968 31.0318H129.438L130.948 27.6836H131.438L132.949 31.0318H132.459L132.092 30.2152ZM131.928 29.8069L131.193 28.1736L130.458 29.8069H131.928Z" fill="black"/>
<path d="M137.727 27.6836V31.0318H133.521V27.6836H134.011V30.6235H135.4V27.6836H135.849V30.6235H137.237V27.6836H137.727Z" fill="black"/>
<path d="M141.197 30.6235V31.0318H138.788V27.6836H141.156V28.0919H139.237V29.1127H140.911V29.521H139.237V30.6235H141.197Z" fill="black"/>
<path d="M144.138 28.0919H142.423V31.0318H141.933V27.6836H144.138V28.0919Z" fill="black"/>
<path d="M144.873 30.8706C144.587 30.7073 144.383 30.5031 144.22 30.2582C144.056 30.0132 143.975 29.6865 143.975 29.4007C143.975 29.074 144.056 28.7882 144.22 28.5432C144.383 28.2982 144.587 28.0941 144.873 27.9307C145.159 27.7674 145.445 27.7266 145.771 27.7266C146.098 27.7266 146.425 27.8082 146.67 27.9307C146.955 28.0941 147.16 28.2982 147.323 28.5432C147.486 28.7882 147.568 29.1149 147.568 29.4007C147.568 29.7273 147.486 30.0132 147.323 30.2582C147.16 30.5031 146.955 30.7073 146.67 30.8706C146.384 31.034 146.098 31.0748 145.771 31.0748C145.445 31.0748 145.159 30.9931 144.873 30.8706ZM146.465 30.4623C146.67 30.3398 146.833 30.2173 146.915 30.0132C146.996 29.809 147.078 29.6048 147.078 29.3598C147.078 29.1149 147.037 28.9107 146.915 28.7065C146.792 28.5024 146.629 28.339 146.465 28.2574C146.302 28.1757 146.057 28.0941 145.812 28.0941C145.567 28.0941 145.363 28.1349 145.159 28.2574C144.955 28.3799 144.791 28.5024 144.71 28.7065C144.587 28.9107 144.546 29.1149 144.546 29.3598C144.546 29.6048 144.587 29.809 144.71 30.0132C144.832 30.2173 144.995 30.3807 145.159 30.4623C145.363 30.5848 145.567 30.6256 145.812 30.6256C146.016 30.6665 146.261 30.5848 146.465 30.4623Z" fill="black"/>
<path d="M149.609 27.6836H152.141V28.0919H150.099V29.0311H151.12C151.528 29.0311 151.814 29.1127 152.018 29.276C152.223 29.4394 152.345 29.6844 152.345 30.011C152.345 30.3377 152.223 30.5827 152.018 30.746C151.773 30.9093 151.488 30.991 151.039 30.991H149.609V27.6836ZM151.039 30.6643C151.324 30.6643 151.528 30.6235 151.651 30.501C151.814 30.3785 151.855 30.256 151.855 30.0519C151.855 29.6435 151.569 29.4394 150.998 29.4394H150.059V30.6643H151.039Z" fill="black"/>
<path d="M153.121 27.6836H153.611V30.256L155.571 27.6836H156.02V31.0318H155.571V28.4594L153.529 31.0318H153.121V27.6836Z" fill="black"/>
<path d="M159.123 29.6027C159.245 29.7252 159.286 29.9294 159.286 30.0927C159.286 30.256 159.204 30.4602 159.082 30.6235C158.959 30.7868 158.796 30.8685 158.592 30.9502C158.388 31.0318 158.143 31.0727 157.898 31.0727C157.693 31.0727 157.448 31.0318 157.244 30.991C157.04 30.9093 156.836 30.8277 156.632 30.7052L156.795 30.3377C156.958 30.4602 157.122 30.5418 157.285 30.5827C157.448 30.6235 157.653 30.6643 157.816 30.6643C158.102 30.6643 158.306 30.6235 158.469 30.501C158.633 30.3785 158.755 30.2152 158.755 30.0519C158.755 29.8885 158.673 29.766 158.551 29.6435C158.428 29.5619 158.224 29.521 157.979 29.521H157.244V29.1536H157.938C158.143 29.1536 158.306 29.1127 158.428 29.0311C158.551 28.9494 158.592 28.8269 158.592 28.6636C158.592 28.5002 158.51 28.3369 158.347 28.2552C158.183 28.1736 157.979 28.0919 157.734 28.0919C157.571 28.0919 157.408 28.1327 157.244 28.1736C157.081 28.2144 156.918 28.2961 156.795 28.3777L156.632 27.9694C156.795 27.8878 156.958 27.8061 157.163 27.7653C157.367 27.7244 157.53 27.6836 157.734 27.6836C157.979 27.6836 158.183 27.7244 158.388 27.8061C158.592 27.8878 158.755 27.9694 158.878 28.1327C159 28.2552 159.041 28.4186 159.041 28.6227C159.041 28.7861 159 28.9494 158.918 29.0719C158.837 29.1944 158.714 29.276 158.51 29.3577C158.837 29.3577 159 29.4394 159.123 29.6027Z" fill="black"/>
<path d="M162.961 27.6836V31.0318H162.512V29.5619H160.593V31.0318H160.103V27.6836H160.593V29.1127H162.512V27.6836H162.961Z" fill="black"/>
<path d="M166.432 30.6235V31.0318H164.022V27.6836H166.391V28.0919H164.512V29.1127H166.187V29.521H164.512V30.6235H166.432Z" fill="black"/>
<path d="M167.779 30.8706C167.494 30.7073 167.289 30.5031 167.167 30.2582C167.004 30.0132 166.922 29.6865 166.922 29.4007C166.922 29.074 167.004 28.7882 167.167 28.5432C167.33 28.2982 167.534 28.0941 167.82 27.9307C168.106 27.7674 168.392 27.7266 168.718 27.7266C168.963 27.7266 169.208 27.7674 169.453 27.8491C169.658 27.9307 169.862 28.0532 170.025 28.2574L169.698 28.5432C169.453 28.2982 169.127 28.1349 168.759 28.1349C168.514 28.1349 168.269 28.1757 168.106 28.2982C167.943 28.4207 167.739 28.5432 167.616 28.7474C167.494 28.9515 167.453 29.1557 167.453 29.4007C167.453 29.6457 167.494 29.8498 167.616 30.054C167.739 30.2582 167.902 30.4215 168.106 30.5031C168.31 30.6256 168.514 30.6665 168.759 30.6665C169.127 30.6665 169.453 30.544 169.698 30.2582L170.025 30.544C169.862 30.7073 169.698 30.8298 169.453 30.9523C169.249 31.034 169.004 31.0748 168.718 31.0748C168.351 31.0748 168.024 30.9931 167.779 30.8706Z" fill="black"/>
<path d="M172.68 30.2152H170.924L170.556 31.0318H170.066L171.577 27.6836H172.067L173.578 31.0318H173.088L172.68 30.2152ZM172.516 29.8069L171.781 28.1736L171.046 29.8069H172.516Z" fill="black"/>
<path d="M7.18629 18.742L16.496 18.8236C17.6802 18.9053 18.6601 19.7219 18.9868 20.9469C20.2934 25.5609 21.845 36.5856 23.7641 36.5448C26.1732 36.5039 28.664 15.1079 30.0115 15.1079C30.9506 15.1079 31.9306 28.1333 33.768 28.1333C35.6055 28.1333 37.1571 19.4361 39.7703 19.4361C42.3836 19.4361 51.4892 18.5786 51.4892 17.8845C51.4892 17.272 44.5477 15.9654 36.3404 15.6387C35.1971 15.5979 34.2172 14.7812 33.8905 13.5971C32.7064 9.43223 32.1756 0 29.7256 0C26.4182 0 24.5399 21.5185 23.805 21.5185C22.825 21.5185 21.6409 5.30818 18.456 5.30818C15.8019 5.30818 15.5977 15.5979 11.882 15.9245C3.2664 16.6595 3.18474 18.742 7.18629 18.742Z" fill="url(#paint2_linear_126_721)"/>
<path d="M1.75578 19.5166C2.72547 19.5166 3.51156 18.7853 3.51156 17.8833C3.51156 16.9812 2.72547 16.25 1.75578 16.25C0.78609 16.25 0 16.9812 0 17.8833C0 18.7853 0.78609 19.5166 1.75578 19.5166Z" fill="url(#paint3_linear_126_721)"/>
</g>
<defs>
<linearGradient id="paint0_linear_126_721" x1="55.7449" y1="13.8257" x2="92.4823" y2="13.8257" gradientUnits="userSpaceOnUse">
<stop stop-color="#4C3AFF"/>
<stop offset="1" stop-color="#49BCFF"/>
</linearGradient>
<linearGradient id="paint1_linear_126_721" x1="55.745" y1="13.8257" x2="92.4824" y2="13.8257" gradientUnits="userSpaceOnUse">
<stop stop-color="#4C3AFF"/>
<stop offset="1" stop-color="#49BCFF"/>
</linearGradient>
<linearGradient id="paint2_linear_126_721" x1="2.48639" y1="18.2651" x2="48.2138" y2="18.2651" gradientUnits="userSpaceOnUse">
<stop stop-color="#4C3AFF"/>
<stop offset="1" stop-color="#49BCFF"/>
</linearGradient>
<linearGradient id="paint3_linear_126_721" x1="2.48656" y1="17.8986" x2="48.214" y2="17.8986" gradientUnits="userSpaceOnUse">
<stop stop-color="#4C3AFF"/>
<stop offset="1" stop-color="#49BCFF"/>
</linearGradient>
<clipPath id="clip0_126_721">
<rect width="173.618" height="36.5448" fill="white"/>
</clipPath>
</defs>
</svg>
