<svg width="21" height="15" viewBox="0 0 21 15" fill="none" xmlns="http://www.w3.org/2000/svg">
<path fill-rule="evenodd" clip-rule="evenodd" d="M0.975886 0.395616C1.34808 0.13968 1.7915 0 2.24995 0H18.75C19.2084 0 19.6518 0.139687 20.024 0.395616L10.9818 7.99042C10.7033 8.22479 10.2965 8.22479 10.018 7.99042L0.975886 0.395616ZM20.9081 1.61155C20.9681 1.81686 21 2.03155 21 2.25V12.75C21 13.3472 20.7628 13.9191 20.3409 14.3409C19.9191 14.7628 19.3472 15 18.75 15H2.25C1.65281 15 1.08094 14.7628 0.659064 14.3409C0.237192 13.9191 0 13.3472 0 12.75V2.25C0 2.03156 0.0318743 1.81687 0.0918743 1.61155L9.05251 9.13867C9.88971 9.8418 11.1103 9.8418 11.9474 9.13867L20.9081 1.61155Z" fill="#35ACE1"/>
<path fill-rule="evenodd" clip-rule="evenodd" d="M0.975886 0.395616C1.34808 0.13968 1.7915 0 2.24995 0H18.75C19.2084 0 19.6518 0.139687 20.024 0.395616L10.9818 7.99042C10.7033 8.22479 10.2965 8.22479 10.018 7.99042L0.975886 0.395616ZM20.9081 1.61155C20.9681 1.81686 21 2.03155 21 2.25V12.75C21 13.3472 20.7628 13.9191 20.3409 14.3409C19.9191 14.7628 19.3472 15 18.75 15H2.25C1.65281 15 1.08094 14.7628 0.659064 14.3409C0.237192 13.9191 0 13.3472 0 12.75V2.25C0 2.03156 0.0318743 1.81687 0.0918743 1.61155L9.05251 9.13867C9.88971 9.8418 11.1103 9.8418 11.9474 9.13867L20.9081 1.61155Z" fill="url(#paint0_linear_126_1254)"/>
<defs>
<linearGradient id="paint0_linear_126_1254" x1="10.5" y1="15" x2="10.5" y2="0" gradientUnits="userSpaceOnUse">
<stop stop-color="#1D93D2"/>
<stop offset="1" stop-color="#38B0E3"/>
</linearGradient>
</defs>
</svg>
