<svg width="58" height="58" viewBox="0 0 58 58" fill="none" xmlns="http://www.w3.org/2000/svg">
<path d="M56.2186 22.8063L50.6878 22.0218C50.3098 20.8489 49.8359 19.707 49.2715 18.6091L52.6324 14.1297C53.2512 13.3063 53.1684 12.1515 52.4408 11.4213L46.5786 5.55916C45.851 4.82896 44.6936 4.75127 43.8728 5.36496L39.3908 8.72584C38.2903 8.16138 37.1485 7.68754 35.9782 7.30951L35.1936 1.78143C35.0486 0.758639 34.1734 0 33.1429 0H24.8572C23.8266 0 22.9514 0.758639 22.8064 1.78143L22.0218 7.31217C20.8489 7.6902 19.7096 8.16407 18.6092 8.72591L14.1272 5.36503C13.2986 4.74619 12.1464 4.82905 11.4188 5.55663L5.55663 11.4188C4.82901 12.1464 4.74616 13.3012 5.36503 14.1272L8.72591 18.6066C8.16144 19.7071 7.68761 20.8489 7.31217 22.0193L1.78143 22.8064C0.758639 22.9514 0 23.8266 0 24.8572V33.1429C0 34.1734 0.758639 35.0486 1.78143 35.1936L7.31217 35.9782C7.6902 37.1511 8.16407 38.2904 8.72591 39.3908L5.36503 43.8728C4.74619 44.6988 4.82905 45.8511 5.55663 46.5812L11.4188 52.4434C12.1464 53.1736 13.2986 53.2538 14.1272 52.635L18.6066 49.2741C19.7071 49.8386 20.8489 50.3124 22.0193 50.6878L22.8038 56.2186C22.9514 57.2414 23.8266 58 24.8572 58H33.1429C34.1734 58 35.0486 57.2414 35.1936 56.2186L35.9782 50.6878C37.1485 50.3098 38.2904 49.8359 39.3908 49.2715L43.8728 52.6324C44.6937 53.2461 45.8511 53.1684 46.5786 52.4382L52.4408 46.576C53.1684 45.8458 53.2513 44.6936 52.6324 43.8677L49.2715 39.3882C49.836 38.2877 50.3098 37.1459 50.6878 35.9756L56.2186 35.191C57.2414 35.0486 58 34.1734 58 33.1429V24.8572C58 23.8267 57.2414 22.9514 56.2186 22.8063ZM29.0004 41.4286C22.1464 41.4286 16.5718 35.8539 16.5718 29.0001C16.5718 22.1463 22.1466 16.5715 29.0004 16.5715C35.8542 16.5715 41.4289 22.1463 41.4289 29.0001C41.4289 35.8539 35.8542 41.4286 29.0004 41.4286Z" fill="white"/>
</svg>
