<svg width="23" height="23" viewBox="0 0 23 23" fill="none" xmlns="http://www.w3.org/2000/svg">
<g clip-path="url(#clip0_126_1249)">
<path d="M11.5 23C17.8513 23 23 17.8513 23 11.5C23 5.14873 17.8513 0 11.5 0C5.14873 0 0 5.14873 0 11.5C0 17.8513 5.14873 23 11.5 23Z" fill="url(#paint0_linear_126_1249)"/>
<path d="M7.78418 12.3405L9.14856 16.1169C9.14856 16.1169 9.31914 16.4702 9.5018 16.4702C9.68446 16.4702 12.4012 13.6439 12.4012 13.6439L15.4224 7.80859L7.83286 11.3656L7.78418 12.3405Z" fill="#C8DAEA"/>
<path d="M9.59365 13.3105L9.33174 16.0941C9.33174 16.0941 9.2221 16.947 10.0748 16.0941C10.9276 15.2412 11.7438 14.5835 11.7438 14.5835" fill="#A9C6D8"/>
<path d="M7.80834 12.4753L5.00177 11.5608C5.00177 11.5608 4.66635 11.4248 4.77436 11.1162C4.79659 11.0525 4.84144 10.9984 4.97561 10.9053C5.59747 10.4719 16.4858 6.55834 16.4858 6.55834C16.4858 6.55834 16.7932 6.45474 16.9745 6.52365C17.0194 6.53753 17.0597 6.56308 17.0915 6.59769C17.1232 6.63229 17.1452 6.6747 17.1552 6.72059C17.1748 6.80163 17.1829 6.88501 17.1795 6.96832C17.1786 7.04038 17.1699 7.10718 17.1633 7.21192C17.097 8.2819 15.1125 16.2675 15.1125 16.2675C15.1125 16.2675 14.9937 16.7348 14.5683 16.7508C14.4638 16.7542 14.3596 16.7365 14.2621 16.6987C14.1645 16.661 14.0756 16.604 14.0005 16.5311C13.1657 15.8131 10.2804 13.874 9.64279 13.4475C9.6284 13.4377 9.61629 13.4249 9.60727 13.4101C9.59824 13.3952 9.59251 13.3785 9.59046 13.3613C9.58155 13.3163 9.63042 13.2606 9.63042 13.2606C9.63042 13.2606 14.6546 8.7948 14.7883 8.32599C14.7986 8.28967 14.7595 8.27174 14.707 8.28765C14.3733 8.41042 8.58862 12.0635 7.95018 12.4667C7.90422 12.4806 7.85565 12.4835 7.80834 12.4753Z" fill="white"/>
</g>
<defs>
<linearGradient id="paint0_linear_126_1249" x1="11.5" y1="23" x2="11.5" y2="0" gradientUnits="userSpaceOnUse">
<stop stop-color="#1D93D2"/>
<stop offset="1" stop-color="#38B0E3"/>
</linearGradient>
<clipPath id="clip0_126_1249">
<rect width="23" height="23" fill="white"/>
</clipPath>
</defs>
</svg>
